<svg width="80" height="30" viewBox="0 0 80 30" fill="none" xmlns="http://www.w3.org/2000/svg">
<path d="M65.9982 14.5613V0.245422H68.7136L77.083 10.5528H75.7657V0.245422H79.0081V14.5613H76.3129L67.9233 4.25386H69.2405V14.5613H65.9982Z" fill="black"/>
<path d="M48.2135 14.5613L54.5361 0.245422H57.7784L64.1213 14.5613H60.6763L55.4885 1.92242H56.7855L51.5774 14.5613H48.2135ZM51.3748 11.4936L52.2462 8.97809H59.5415L60.4331 11.4936H51.3748Z" fill="black"/>
<path d="M34.7709 14.5613V0.245422H40.9111C42.181 0.245422 43.2753 0.456752 44.1939 0.87941C45.1126 1.28843 45.8219 1.88152 46.3217 2.65867C46.8216 3.43581 47.0715 4.36293 47.0715 5.44003C47.0715 6.50349 46.8216 7.4238 46.3217 8.20094C45.8219 8.96445 45.1126 9.55072 44.1939 9.95975C43.2753 10.3688 42.181 10.5733 40.9111 10.5733H36.5947L38.0538 9.12125V14.5613H34.7709ZM43.7887 14.5613L40.2423 9.36666H43.7481L47.335 14.5613H43.7887ZM38.0538 9.48937L36.5947 7.93508H40.7287C41.7419 7.93508 42.4985 7.71693 42.9983 7.28064C43.4982 6.83071 43.7481 6.21717 43.7481 5.44003C43.7481 4.64925 43.4982 4.03571 42.9983 3.59942C42.4985 3.16313 41.7419 2.94498 40.7287 2.94498H36.5947L38.0538 1.37024V9.48937Z" fill="black"/>
<path d="M24.6976 14.8067C22.6846 14.8067 21.1107 14.2409 19.9759 13.1092C18.8411 11.9776 18.2737 10.362 18.2737 8.26229V0.245422H21.5566V8.13959C21.5566 9.503 21.8335 10.4847 22.3874 11.0846C22.9413 11.6845 23.7181 11.9844 24.7178 11.9844C25.7176 11.9844 26.4944 11.6845 27.0483 11.0846C27.6022 10.4847 27.8791 9.503 27.8791 8.13959V0.245422H31.1215V8.26229C31.1215 10.362 30.5541 11.9776 29.4193 13.1092C28.2844 14.2409 26.7105 14.8067 24.6976 14.8067Z" fill="black"/>
<path d="M7.76137 14.8067C6.65357 14.8067 5.62007 14.6226 4.66088 14.2545C3.71519 13.8864 2.89109 13.3683 2.18858 12.7002C1.49959 12.0321 0.959195 11.2482 0.567411 10.3483C0.189137 9.44846 0 8.4668 0 7.40334C0 6.33987 0.189137 5.35821 0.567411 4.45836C0.959195 3.55851 1.50634 2.77455 2.20885 2.10647C2.91136 1.4384 3.73546 0.920303 4.68114 0.552182C5.62682 0.184061 6.65357 0 7.76137 0C8.88268 0 9.90943 0.184061 10.8416 0.552182C11.7873 0.920303 12.6046 1.4384 13.2936 2.10647C13.9961 2.76091 14.5433 3.53806 14.9351 4.43791C15.3268 5.33776 15.5227 6.32624 15.5227 7.40334C15.5227 8.4668 15.3268 9.45527 14.9351 10.3688C14.5433 11.2686 13.9961 12.0526 13.2936 12.7206C12.6046 13.3751 11.7873 13.8864 10.8416 14.2545C9.90943 14.6226 8.88268 14.8067 7.76137 14.8067ZM12.402 17.8539C11.8481 17.8539 11.3212 17.7925 10.8213 17.6698C10.335 17.5471 9.84863 17.3494 9.36228 17.0768C8.88944 16.8041 8.38958 16.436 7.86269 15.9724C7.34932 15.5088 6.78867 14.9362 6.18073 14.2545L9.62572 13.3751C9.99049 13.8795 10.3282 14.2818 10.639 14.5817C10.9497 14.8817 11.2469 15.093 11.5306 15.2157C11.8278 15.3384 12.1385 15.3998 12.4628 15.3998C13.3274 15.3998 14.0975 15.0453 14.7729 14.3363L16.232 16.0951C15.2728 17.2676 13.9961 17.8539 12.402 17.8539ZM7.76137 11.9844C8.39633 11.9844 8.97725 11.8753 9.50413 11.6572C10.0445 11.439 10.5174 11.1255 10.9227 10.7164C11.328 10.3074 11.6387 9.82339 11.8548 9.26439C12.0845 8.69176 12.1993 8.07141 12.1993 7.40334C12.1993 6.72163 12.0845 6.10128 11.8548 5.54228C11.6387 4.98328 11.328 4.49926 10.9227 4.09024C10.5174 3.68122 10.0445 3.36763 9.50413 3.14948C8.97725 2.93134 8.39633 2.82227 7.76137 2.82227C7.12641 2.82227 6.53874 2.93134 5.99834 3.14948C5.45795 3.36763 4.98511 3.68122 4.57982 4.09024C4.18803 4.49926 3.87731 4.98328 3.64764 5.54228C3.43149 6.10128 3.32341 6.72163 3.32341 7.40334C3.32341 8.07141 3.43149 8.69176 3.64764 9.26439C3.87731 9.82339 4.18803 10.3074 4.57982 10.7164C4.98511 11.1255 5.45795 11.439 5.99834 11.6572C6.53874 11.8753 7.12641 11.9844 7.76137 11.9844Z" fill="black"/>
<path d="M73.0564 29.8691V22.2286H74.5057L78.9724 27.7297H78.2694V22.2286H79.9999V29.8691H78.5614L74.0839 24.3679H74.7869V29.8691H73.0564Z" fill="black"/>
<path d="M67.3919 30C66.7934 30 66.2382 29.9018 65.7263 29.7053C65.2216 29.5089 64.7818 29.2323 64.4068 28.8758C64.0391 28.5192 63.7507 28.1008 63.5416 27.6206C63.3397 27.1403 63.2388 26.6164 63.2388 26.0488C63.2388 25.4812 63.3397 24.9573 63.5416 24.4771C63.7507 23.9968 64.0427 23.5784 64.4176 23.2218C64.7926 22.8653 65.2324 22.5888 65.7371 22.3923C66.2418 22.1958 66.7898 22.0976 67.3811 22.0976C67.9795 22.0976 68.5275 22.1958 69.025 22.3923C69.5297 22.5888 69.966 22.8653 70.3337 23.2218C70.7086 23.5784 71.0006 23.9968 71.2097 24.4771C71.4188 24.95 71.5234 25.474 71.5234 26.0488C71.5234 26.6164 71.4188 27.1439 71.2097 27.6315C71.0006 28.1117 70.7086 28.5301 70.3337 28.8867C69.966 29.236 69.5297 29.5089 69.025 29.7053C68.5275 29.9018 67.9831 30 67.3919 30ZM67.3811 28.4938C67.72 28.4938 68.03 28.4356 68.3112 28.3191C68.5996 28.2027 68.852 28.0353 69.0683 27.817C69.2846 27.5987 69.4504 27.3404 69.5658 27.0421C69.6884 26.7437 69.7497 26.4126 69.7497 26.0488C69.7497 25.685 69.6884 25.3539 69.5658 25.0556C69.4504 24.7572 69.2846 24.4989 69.0683 24.2806C68.8592 24.0623 68.6104 23.8949 68.322 23.7785C68.0336 23.6621 67.72 23.6039 67.3811 23.6039C67.0422 23.6039 66.7285 23.6621 66.4401 23.7785C66.1589 23.8949 65.9102 24.0623 65.6939 24.2806C65.4776 24.4989 65.3081 24.7572 65.1855 25.0556C65.0702 25.3539 65.0125 25.685 65.0125 26.0488C65.0125 26.4054 65.0702 26.7365 65.1855 27.0421C65.3081 27.3404 65.474 27.5987 65.6831 27.817C65.8994 28.0353 66.1517 28.2027 66.4401 28.3191C66.7285 28.4356 67.0422 28.4938 67.3811 28.4938Z" fill="black"/>
<path d="M59.9496 29.8691V22.2286H61.7017V29.8691H59.9496Z" fill="black"/>
<path d="M54.6158 29.8691V23.6694H52.1931V22.2286H58.7905V23.6694H56.3679V29.8691H54.6158Z" fill="black"/>
<path d="M43.9358 29.8691L47.3102 22.2286H49.0407L52.4259 29.8691H50.5873L47.8185 23.1236H48.5107L45.7311 29.8691H43.9358ZM45.623 28.2318L46.0881 26.8893H49.9816L50.4575 28.2318H45.623Z" fill="black"/>
<path d="M35.8848 29.8691V22.2286H39.3241C40.146 22.2286 40.8707 22.3887 41.498 22.7088C42.1253 23.0217 42.6156 23.462 42.9689 24.0295C43.3222 24.5971 43.4988 25.2702 43.4988 26.0488C43.4988 26.8201 43.3222 27.4932 42.9689 28.0681C42.6156 28.6357 42.1253 29.0795 41.498 29.3997C40.8707 29.7126 40.146 29.8691 39.3241 29.8691H35.8848ZM37.6369 28.4174H39.2375C39.7423 28.4174 40.1785 28.3228 40.5462 28.1336C40.9211 27.9371 41.2096 27.6606 41.4114 27.304C41.6205 26.9475 41.7251 26.5291 41.7251 26.0488C41.7251 25.5613 41.6205 25.1429 41.4114 24.7936C41.2096 24.437 40.9211 24.1642 40.5462 23.975C40.1785 23.7785 39.7423 23.6803 39.2375 23.6803H37.6369V28.4174Z" fill="black"/>
<path d="M26.9337 29.8691V22.2286H28.383L32.8498 27.7297H32.1467V22.2286H33.8772V29.8691H32.4388L27.9612 24.3679H28.6642V29.8691H26.9337Z" fill="black"/>
<path d="M21.5575 30C20.4832 30 19.6432 29.6981 19.0375 29.0941C18.4319 28.4901 18.129 27.6278 18.129 26.5072V22.2286H19.8811V26.4418C19.8811 27.1694 20.0289 27.6933 20.3246 28.0135C20.6202 28.3337 21.0348 28.4938 21.5683 28.4938C22.1019 28.4938 22.5165 28.3337 22.8121 28.0135C23.1077 27.6933 23.2555 27.1694 23.2555 26.4418V22.2286H24.986V26.5072C24.986 27.6278 24.6832 28.4901 24.0775 29.0941C23.4718 29.6981 22.6318 30 21.5575 30Z" fill="black"/>
<path d="M12.5293 30C11.9309 30 11.3757 29.9018 10.8638 29.7053C10.359 29.5089 9.91922 29.2323 9.54429 28.8758C9.17656 28.5192 8.88815 28.1008 8.67905 27.6206C8.47716 27.1403 8.37622 26.6164 8.37622 26.0488C8.37622 25.4812 8.47716 24.9573 8.67905 24.4771C8.88815 23.9968 9.18017 23.5784 9.5551 23.2218C9.93004 22.8653 10.3699 22.5888 10.8746 22.3923C11.3793 22.1958 11.9273 22.0976 12.5185 22.0976C13.117 22.0976 13.665 22.1958 14.1625 22.3923C14.6672 22.5888 15.1034 22.8653 15.4711 23.2218C15.8461 23.5784 16.1381 23.9968 16.3472 24.4771C16.5563 24.95 16.6608 25.474 16.6608 26.0488C16.6608 26.6164 16.5563 27.1439 16.3472 27.6315C16.1381 28.1117 15.8461 28.5301 15.4711 28.8867C15.1034 29.236 14.6672 29.5089 14.1625 29.7053C13.665 29.9018 13.1206 30 12.5293 30ZM12.5185 28.4938C12.8574 28.4938 13.1674 28.4356 13.4487 28.3191C13.7371 28.2027 13.9894 28.0353 14.2057 27.817C14.422 27.5987 14.5879 27.3404 14.7032 27.0421C14.8258 26.7437 14.8871 26.4126 14.8871 26.0488C14.8871 25.685 14.8258 25.3539 14.7032 25.0556C14.5879 24.7572 14.422 24.4989 14.2057 24.2806C13.9966 24.0623 13.7479 23.8949 13.4595 23.7785C13.1711 23.6621 12.8574 23.6039 12.5185 23.6039C12.1796 23.6039 11.866 23.6621 11.5776 23.7785C11.2964 23.8949 11.0476 24.0623 10.8313 24.2806C10.615 24.4989 10.4456 24.7572 10.323 25.0556C10.2076 25.3539 10.1499 25.685 10.1499 26.0488C10.1499 26.4054 10.2076 26.7365 10.323 27.0421C10.4456 27.3404 10.6114 27.5987 10.8205 27.817C11.0368 28.0353 11.2892 28.2027 11.5776 28.3191C11.866 28.4356 12.1796 28.4938 12.5185 28.4938Z" fill="black"/>
<path d="M3.42456 25.6668H7.05854V27.0857H3.42456V25.6668ZM3.55434 29.8691H1.80225V22.2286H7.5236V23.6475H3.55434V29.8691Z" fill="black"/>
</svg>
